# xmcd
#
# Track frame offsets: 
#        150
#        18148
#        32084
#        44101
#        53861
#        67124
#        80977
#        104062
#        125360
#        136935
#        149468
#        161106
#        173332
#        189287
#        203009
#
# Disc length: 2868 seconds
#
# Revision: 2
# Processed by: cddbd v1.5.2PL0 Copyright (c) Steve Scherf et al.
# Submitted via: ExactAudioCopy v0.99pb4
#
DISCID=d90b320f
DTITLE=Various Artist - easy Country - Disc Two
DYEAR=2006
DGENRE=Country
TTITLE0=The Flying Burrito Brothers/Do Right Woman
TTITLE1=The Cox Family/Standing By The Bedside Of A Neighbour
TTITLE2=Dolly Parton/Jolene
TTITLE3=Webb Pierce/In The Jailhouse Now
TTITLE4=Golden Smog/Pecan Pie
TTITLE5=Lonestar/Amazed
TTITLE6=Alejandro Escovedo/Nickel And A Spoon
TTITLE7=Willand Grant Conspiracy/Archy´s Lullaby
TTITLE8=Kenny Rogers/Me And Bobby McGee
TTITLE9=Freddy Fender/You´ll Lose A Good Thing
TTITLE10=Jeannie C. Riley/Before The Next Teardrop Falls
TTITLE11=Charlie Rich/The Most Beautiful Girl
TTITLE12=Jimmie Rodgers/Blue Yodel (T For Texas)
TTITLE13=Ernest Tubb/Goodnight Irene
TTITLE14=Tammy Wynette/Stand By Your Man
EXTD=
EXTT0=
EXTT1=
EXTT2=
EXTT3=
EXTT4=
EXTT5=
EXTT6=
EXTT7=
EXTT8=
EXTT9=
EXTT10=
EXTT11=
EXTT12=
EXTT13=
EXTT14=
PLAYORDER=
